# xmcd
#
# Track frame offsets: 
#        150
#        39660
#        56762
#        92317
#        124730
#        142897
#        169592
#        192475
#        212965
#
# Disc length: 3177 seconds
#
# Revision: 0
# Processed by: cddbd v1.5PL3 Copyright (c) Steve Scherf et al.
# Submitted via: ExactAudioCopy v0.95a4
#
DISCID=7c0c6709
DTITLE=LISZT FERENC CHAMBER ORCHESTRA BUDAPEST JANOS ROLLA - SERENADES
DTITLE=TCHAIKOVSKY DVORAK
DYEAR=1900
DGENRE=
TTITLE0=PIOTR ILYICH TCHAIKOVSKY Serenade inC major for Strings Op.48 
TTITLE0=I. Pezzo in forma di Sonatina
TTITLE1=II.Walzer
TTITLE2=III.Elegie
TTITLE3=IV.Finale(Tema Russo)
TTITLE4=ANTONIN DVORAK Serenade in E major Op.22 I.Moderato
TTITLE5=II.Tempo di Valse
TTITLE6=III.Scherzo.Vivace
TTITLE7=IV.Largheto
TTITLE8=V.Finale.Allegro vivace
EXTD=
EXTT0=
EXTT1=
EXTT2=
EXTT3=
EXTT4=
EXTT5=
EXTT6=
EXTT7=
EXTT8=
PLAYORDER=
